<?xml version="1.0" encoding="UTF-8"?>
<svg width="127px" height="26px" viewBox="0 0 127 26" version="1.1" xmlns="http://www.w3.org/2000/svg" xmlns:xlink="http://www.w3.org/1999/xlink">
    <!-- Generator: Sketch 46.2 (44496) - http://www.bohemiancoding.com/sketch -->
    <title>empatica-logo</title>
    <desc>Created with Sketch.</desc>
    <defs></defs>
    <g id="Symbols" stroke="none" stroke-width="1" fill="none" fill-rule="evenodd">
        <g id="Navigation" transform="translate(-57.000000, -22.000000)" fill="#BC204B">
            <g id="Navigation-Copy">
                <path d="M148.237773,38.5827515 C147.95952,38.668804 147.275108,38.8184411 146.482985,38.8184411 C145.625786,38.8184411 144.427504,38.689924 144.427504,37.1899585 C144.427504,35.9032147 145.084988,35.7971656 145.946675,35.6246111 L148.237773,35.2601797 L148.237773,38.5827515 Z M150.142908,29.7083305 C149.436056,29.3018839 148.388119,29.0877636 146.889144,29.0877636 C144.598046,29.0877636 142.587444,29.667214 142.11621,29.8595403 C141.912008,29.942672 141.837957,30.0932077 141.878348,30.2738507 C141.90752,30.4160733 142.203725,31.7792084 142.203725,31.7801072 C142.228408,31.8850328 142.315923,31.9522122 142.423634,31.9517629 C142.531345,31.9515382 144.804491,31.3377117 146.184536,31.3377117 C146.889144,31.3377117 147.403014,31.4030937 147.703707,31.552506 C148.152502,31.7666263 148.217577,32.1310577 148.217577,32.7098341 L148.217577,33.2886104 L144.492579,33.8891808 C142.928529,34.1246457 141.17374,34.4886277 141.17374,37.2324231 C141.17374,40.5974594 143.911389,40.9239198 146.393226,40.9239198 C146.927292,40.9239198 147.867517,40.916056 149.436056,40.5974594 C150.919323,40.2972866 151.513976,39.9247667 151.513976,38.3686312 L151.513976,32.4734704 C151.513976,31.2732285 151.215528,30.2882302 150.142908,29.7083305 Z M109.390081,38.5757864 C109.111828,38.6618389 108.434147,38.8087798 107.644268,38.8087798 C106.789314,38.8087798 105.633667,38.6798133 105.633667,37.1816454 C105.633667,35.8962496 106.248516,35.7908745 107.110202,35.6194435 L109.390081,35.2565849 L109.390081,38.5757864 Z M111.299703,29.7094539 C110.595095,29.303906 109.547159,29.089561 108.050428,29.089561 C105.761573,29.089561 103.753216,29.6687867 103.281981,29.8602143 C103.077779,29.9431213 103.005972,30.0941065 103.04412,30.2743 C103.075535,30.4167473 103.37174,31.7778604 103.37174,31.7792084 C103.39418,31.8832354 103.483939,31.9506395 103.589406,31.9501901 C103.69936,31.9499654 105.968019,31.3365883 107.345819,31.3365883 C108.050428,31.3365883 108.564298,31.4019703 108.862746,31.5509333 C109.311541,31.7650536 109.383349,32.1297096 109.383349,32.7073626 L109.390081,33.2850156 L105.656106,33.8853612 C104.0943,34.1208261 102.341756,34.4839094 102.341756,37.2250086 C102.341756,40.5860007 105.074917,40.9124611 107.554509,40.9124611 C108.088575,40.9124611 109.026557,40.9041479 110.595095,40.5860007 C112.073874,40.2858279 112.668528,39.9137573 112.668528,38.3594193 L112.668528,32.4718977 C112.668528,31.2727791 112.370079,30.2886796 111.299703,29.7094539 Z M121.951852,38.6789146 C121.906972,38.4638956 121.756626,38.3742482 121.55018,38.4063775 C121.224804,38.4717594 120.690738,38.5688213 120.078133,38.5688213 C118.985317,38.5688213 118.707064,38.0900277 118.707064,37.2539924 L118.707064,31.5978915 L121.556912,31.5978915 C121.754382,31.5978915 121.90024,31.4585897 121.90024,31.2754753 L121.90024,29.7907881 C121.90024,29.5989112 121.749894,29.46972 121.556912,29.46972 L118.698088,29.46972 C118.698088,29.46972 118.698088,26.0496371 118.698088,26.048963 C118.698088,25.8658486 118.54101,25.6809367 118.314369,25.7207052 C118.110167,25.7564293 115.792141,26.164224 115.792141,26.164224 C115.511644,26.2284825 115.424129,26.3648635 115.424129,26.6650363 L115.424129,37.4081231 C115.424129,39.9620636 116.691975,40.9086415 119.24113,40.9086415 C120.677274,40.9086415 121.698283,40.5952126 121.998975,40.5087107 C121.998975,40.5087107 121.998975,40.5087107 121.998975,40.5082613 C122.171761,40.4538887 122.266008,40.2977359 122.234593,40.1063083 C122.205421,39.9339786 121.998975,38.9083132 121.951852,38.6789146 Z M127.180313,23.8623747 C127.124214,23.8623747 125.178688,23.8623747 125.122588,23.8623747 C124.693989,23.8623747 124.512227,24.1227791 124.512227,24.578206 C124.512227,24.5977532 124.512227,24.9990321 124.512227,25.4704113 C124.512227,25.6661078 124.512227,25.8730384 124.512227,26.0703076 C124.512227,26.5416868 124.512227,26.9434151 124.512227,26.963187 C124.512227,27.4186139 124.693989,27.5740926 125.122588,27.5740926 C125.178688,27.5740926 127.124214,27.5740926 127.180313,27.5740926 C127.608912,27.5740926 127.790674,27.4186139 127.790674,26.963187 C127.790674,26.9434151 127.790674,26.5416868 127.790674,26.0703076 C127.790674,25.8730384 127.790674,25.6661078 127.790674,25.4704113 C127.790674,24.9990321 127.790674,24.5977532 127.790674,24.578206 C127.790674,24.1227791 127.608912,23.8623747 127.180313,23.8623747 Z M127.44959,29.4654511 C127.44959,29.4654511 125.142784,29.4654511 124.855555,29.4654511 C124.63789,29.4654511 124.512227,29.5939682 124.512227,29.8089872 C124.512227,30.3675423 124.512227,39.7025579 124.512227,40.2292084 C124.512227,40.4408572 124.635646,40.5720705 124.853311,40.5720705 C124.853311,40.5720705 127.180313,40.5720705 127.44959,40.5720705 C127.667256,40.5720705 127.78843,40.4372624 127.78843,40.2296578 C127.78843,39.7061528 127.78843,30.3610266 127.78843,29.8083132 C127.78843,29.5953163 127.656036,29.4654511 127.44959,29.4654511 Z M60.2806912,34.3989803 C60.2806912,34.3989803 60.2851792,33.5514863 60.3951339,32.7264604 C60.5409923,31.6394573 61.2747721,31.2689596 62.3832956,31.2680608 C63.4918192,31.2689596 64.225599,31.6394573 64.3714573,32.7264604 C64.4814121,33.5514863 64.488144,34.3989803 64.488144,34.3989803 L60.2806912,34.3989803 Z M62.4034914,29.0814725 C58.2431621,29.0814725 57,30.8629623 57,35.0496543 C57,39.3644141 58.779472,40.9099896 62.9599972,40.9099896 C64.7843487,40.9099896 66.2631281,40.4806256 66.9497844,40.2015728 C67.1382783,40.1238334 67.2145735,39.9151054 67.162962,39.7088489 L66.8600254,38.4524369 C66.8039261,38.2425856 66.628896,38.1637228 66.366351,38.2351711 C65.7806735,38.3958175 64.7439572,38.6986865 63.5187469,38.6986865 C62.4685667,38.6986865 61.7392749,38.5481507 61.2029649,38.2259592 C60.5813838,37.8188386 60.2806912,37.3031974 60.2806912,36.4026789 L67.2055976,36.4026789 C67.614001,36.4026789 67.7217118,36.1701348 67.7217118,35.843225 C67.7217118,35.5435016 67.7217118,35.0707743 67.7217118,34.8132907 C67.7217118,32.9237297 67.4636547,31.5071206 66.6715316,30.5407708 C65.8547247,29.5750951 64.5262916,29.0814725 62.4034914,29.0814725 Z M136.474857,31.3615278 C137.491377,31.3615278 138.440579,31.579243 138.938741,31.7082095 C139.201286,31.7756135 139.329193,31.6859661 139.392024,31.4698237 C139.392024,31.4698237 139.641105,30.2828379 139.672521,30.1284825 C139.703937,29.9739025 139.72862,29.8125821 139.414464,29.6526097 C138.896106,29.3899585 137.296152,29.0902351 135.696198,29.0902351 C131.419182,29.0902351 130.252315,31.0588835 130.252315,35.0179744 C130.252315,38.9557207 131.419182,40.9239198 135.696198,40.9239198 C137.296152,40.9239198 138.88713,40.6259938 139.414464,40.3617698 C139.652325,40.2420152 139.715157,40.1314725 139.672521,39.9067923 C139.636617,39.7212064 139.392024,38.5867957 139.392024,38.5867957 C139.349389,38.3713273 139.174359,38.2787591 138.938741,38.3286381 C138.442823,38.4576046 137.491377,38.674421 136.474857,38.674421 C134.248834,38.674421 133.602569,37.7006568 133.602569,34.9966298 C133.602569,32.3141721 134.248834,31.3615278 136.474857,31.3615278 Z M184,34.9932596 C184,34.9880919 183.997756,34.9824749 183.997756,34.9773073 C183.997756,34.9552886 183.995512,34.93327 183.991024,34.9119253 C183.98878,34.8997926 183.984292,34.8887833 183.979804,34.8770999 C183.975316,34.8627204 183.970828,34.8483408 183.96634,34.8346353 C183.961852,34.8243 183.955121,34.8150881 183.950633,34.8054269 C183.941657,34.7919461 183.934925,34.7777912 183.925949,34.7645351 C183.919217,34.7559972 183.912485,34.7485828 183.905753,34.7404943 C183.896777,34.7279122 183.885557,34.7162288 183.874337,34.7049948 C183.872093,34.7029727 183.869849,34.7005012 183.867605,34.6984791 L178.704219,29.5281369 C178.695243,29.5187003 178.686268,29.5092637 178.677292,29.5000518 L178.675048,29.4982544 C178.603241,29.4351193 178.511238,29.3955755 178.410259,29.3955755 C178.304792,29.3955755 178.210545,29.4362427 178.140982,29.5009506 L178.138738,29.4996025 L176.354778,31.2862599 C176.282971,31.358607 176.238091,31.4592637 176.238091,31.5698064 C176.238091,31.6722606 176.278483,31.7643795 176.341314,31.8349291 L176.33907,31.8362772 L176.354778,31.8522295 C176.354778,31.8524542 176.354778,31.8524542 176.354778,31.8526789 L179.491855,34.9939336 L176.354778,38.1351884 C176.354778,38.1356377 176.354778,38.1356377 176.354778,38.1360871 L176.33907,38.1513654 L176.341314,38.1527134 C176.278483,38.2237124 176.238091,38.316056 176.238091,38.4182855 C176.238091,38.5288282 176.282971,38.6288109 176.354778,38.7016073 L178.138738,40.4882648 L178.140982,40.4873661 C178.210545,40.5522987 178.304792,40.5925164 178.410259,40.5925164 C178.511238,40.5925164 178.603241,40.5531974 178.675048,40.4893882 L178.675048,40.4898375 L178.677292,40.4878154 C178.686268,40.4795022 178.695243,40.469841 178.704219,40.4601797 L183.867605,35.2893882 C183.869849,35.2875907 183.872093,35.2844452 183.874337,35.2833218 C183.885557,35.2720878 183.896777,35.2601797 183.905753,35.2478223 C183.912485,35.2399585 183.919217,35.2320947 183.925949,35.2231075 C183.934925,35.2107501 183.941657,35.1972693 183.948389,35.1844625 C183.955121,35.1736778 183.961852,35.1640166 183.96634,35.1534566 C183.970828,35.1402005 183.975316,35.127169 183.979804,35.1132389 C183.984292,35.1011061 183.98878,35.0889734 183.991024,35.0759419 C183.995512,35.0584169 183.995512,35.0399931 183.997756,35.021794 C183.997756,35.0128068 184,35.0038196 184,34.9948324 L184,34.9939336 C184,34.9939336 184,34.9934843 184,34.9932596 Z M82.9425931,29.0857414 C81.0576543,29.0857414 79.1076401,29.6645178 78.7216764,29.8150536 C78.1427309,29.3859143 77.2002615,29.0857414 75.8740724,29.0857414 C74.5501272,29.0857414 71.8797972,29.4894919 70.9911831,29.7865192 C70.1855962,30.0965779 69.9185631,30.3965261 69.9185631,31.2449188 L69.9185631,40.2512271 C69.9185631,40.4428794 70.0487137,40.5720705 70.2618913,40.5720705 L72.873878,40.5720705 C73.0892996,40.5720705 73.2172062,40.4428794 73.2172062,40.2512271 L73.2172062,31.6131697 C73.2172062,31.6131697 74.4603682,31.3345662 75.4881087,31.3345662 C76.4732137,31.3345662 76.9444484,31.6807985 76.9444484,32.8603699 L76.9444484,40.2512271 C76.9444484,40.4428794 77.0947947,40.5720705 77.3079723,40.5720705 L79.922203,40.5720705 C80.1151848,40.5720705 80.2430914,40.4428794 80.2430914,40.2512271 L80.2430914,31.6093502 C80.2430914,31.6093502 81.4211782,31.3345662 82.4287229,31.3345662 C83.4138278,31.3345662 83.9703336,31.6807985 83.9703336,32.8603699 L83.9703336,40.2512271 C83.9703336,40.4428794 84.1206799,40.5720705 84.3338575,40.5720705 L86.9480882,40.5720705 C87.1612658,40.5720705 87.2891724,40.4428794 87.2891724,40.2512271 L87.2891724,32.4096613 C87.2891724,29.729001 85.6398509,29.0857414 82.9425931,29.0857414 Z M168.13061,25.3250432 C169.304209,25.3250432 170.363365,25.8281023 171.103877,26.6299862 L171.108365,26.6241445 L173.446586,28.9659869 C173.520638,29.0387833 173.619372,29.0837193 173.729327,29.0837193 C173.834794,29.0837193 173.931285,29.0410301 174.003092,28.973626 L174.005336,28.973626 L175.78032,27.1975285 L175.78032,27.1959558 C175.856615,27.123384 175.903739,27.0213792 175.903739,26.907691 C175.903739,26.7969236 175.858859,26.6967162 175.787052,26.6241445 L173.446586,24.2823021 L173.451074,24.2787072 C172.111421,22.8751296 170.221994,22 168.13061,22 C164.06004,22 160.763641,25.3021258 160.763641,29.3760283 C160.763641,31.6315935 161.775673,33.6478742 163.368895,35.0002247 C161.775673,36.3521258 160.763641,38.3686312 160.763641,40.623747 C160.763641,44.6978742 164.06004,48 168.13061,48 C170.221994,48 172.111421,47.1246457 173.451074,45.7217421 L173.446586,45.7172485 L175.787052,43.3765296 C175.858859,43.3032838 175.903739,43.2033011 175.903739,43.0929831 C175.903739,42.9790702 175.856615,42.8770653 175.78032,42.8038196 L175.78032,42.8029208 L174.005336,41.0257 L174.003092,41.0265987 C173.931285,40.9589699 173.834794,40.9165054 173.729327,40.9165054 C173.619372,40.9165054 173.520638,40.9612167 173.446586,41.0340131 L171.108365,43.3751815 L171.103877,43.3695645 C170.363365,44.1721224 169.304209,44.6745074 168.13061,44.6745074 C165.895611,44.6745074 164.084723,42.8613377 164.084723,40.623747 C164.084723,39.5306775 164.51781,38.5398375 165.220175,37.8116488 L165.283006,37.7485137 C165.316665,37.715261 165.350325,37.682233 165.383985,37.649879 L165.383985,37.6471829 L167.73567,35.2925337 C167.737914,35.2907363 167.740158,35.2880401 167.742402,35.2857933 C167.753622,35.2752333 167.762598,35.2633253 167.773818,35.2511925 C167.78055,35.2428794 167.787282,35.2354649 167.794014,35.226253 C167.80299,35.2138956 167.809722,35.2006395 167.816453,35.1871587 C167.823185,35.177048 167.829917,35.1671621 167.834405,35.1563775 C167.838893,35.1437954 167.843381,35.1298652 167.847869,35.1170584 C167.850113,35.1042516 167.854601,35.0918942 167.859089,35.0788628 C167.861333,35.0617871 167.863577,35.0433633 167.863577,35.0247148 C167.865821,35.0159523 167.868065,35.0074144 167.868065,34.9982026 C167.868065,34.9975285 167.868065,34.9975285 167.868065,34.9968545 C167.868065,34.9966298 167.868065,34.9966298 167.868065,34.9961804 C167.868065,34.9910128 167.865821,34.9860698 167.865821,34.9800035 C167.863577,34.9582095 167.863577,34.9359661 167.859089,34.9148462 C167.854601,34.9029381 167.852357,34.8919288 167.847869,34.8804701 C167.843381,34.8660906 167.838893,34.8512617 167.834405,34.8380055 C167.829917,34.8278949 167.823185,34.818683 167.818697,34.8087971 C167.809722,34.7946422 167.80299,34.7807121 167.794014,34.76813 C167.787282,34.7589181 167.78055,34.7515036 167.773818,34.7438645 C167.762598,34.7312824 167.753622,34.719599 167.742402,34.708365 C167.740158,34.7063429 167.737914,34.7040961 167.73567,34.7018493 L165.143879,32.1065676 C164.486395,31.3864673 164.084723,30.4293294 164.084723,29.3760283 C164.084723,27.1391116 165.895611,25.3254926 168.13061,25.3250432 Z M94.9388826,38.6894746 C94.0166089,38.6894746 93.2626334,38.4962496 93.2626334,38.4962496 L93.2648774,31.6136191 C93.2850732,31.6050812 93.8460669,31.3657968 95.1543042,31.3336675 C96.6353276,31.2972693 97.2165171,31.6354131 97.2165171,34.9260802 C97.2165171,38.1297961 96.6802071,38.6894746 94.9388826,38.6894746 Z M95.8409605,29.0756308 C95.5200721,29.0870895 94.8827832,29.1095576 94.2275426,29.1890944 C92.9843805,29.3394055 91.6200438,29.5739717 91.0321224,29.7707916 C90.2242915,30.0815244 89.9572585,30.3828206 89.9572585,31.2332354 C89.9572585,31.2332354 89.9572585,44.738766 89.9572585,44.849758 C89.9572585,45.0510716 90.1412644,45.2108192 90.3275143,45.1784653 C90.5272281,45.1427411 92.7016397,44.783028 92.8991095,44.7491013 C93.1077991,44.7145005 93.2626334,44.5289146 93.2626334,44.3103007 C93.2626334,44.3082786 93.2626334,40.5988075 93.2626334,40.5988075 C94.0166089,40.7983235 94.9164429,40.9257172 95.9486713,40.9257172 C99.987826,40.9257172 100.589211,38.1297961 100.589211,35.011234 C100.589211,31.6354131 100.091049,28.9309367 95.8409605,29.0756308 L95.8409605,29.0756308 Z" id="empatica-logo"></path>
            </g>
        </g>
    </g>
</svg>